<?xml version="1.0" encoding="UTF-8"?>
<svg id="Layer_2" data-name="Layer 2" xmlns="http://www.w3.org/2000/svg" viewBox="0 0 31.56 31.06">
  <defs>
    <style>
      .cls-1 {
        fill: red;
        stroke-width: 0px;
      }

      .cls-2 {
        fill: #fff;
        stroke: #fff;
        stroke-miterlimit: 10;
      }
    </style>
  </defs>
  <g id="Layer_1-2" data-name="Layer 1">
    <g>
      <ellipse class="cls-2" cx="15.78" cy="15.53" rx="15.28" ry="15.03"/>
      <g>
        <g>
          <polygon class="cls-1" points="7.42 10.09 10.23 7.32 23.64 20.53 20.82 23.3 7.42 10.09"/>
          <path class="cls-1" d="M10.23,8.02l12.69,12.51-2.1,2.07-12.69-12.51,2.1-2.07M10.23,6.62l-3.53,3.48,14.12,13.91,3.53-3.48L10.23,6.62h0Z"/>
        </g>
        <g>
          <polygon class="cls-1" points="7.42 10.09 10.23 7.32 23.64 20.53 20.82 23.3 7.42 10.09"/>
          <path class="cls-1" d="M10.23,8.02l12.69,12.51-2.1,2.07-12.69-12.51,2.1-2.07M10.23,6.62l-3.53,3.48,14.12,13.91,3.53-3.48L10.23,6.62h0Z"/>
        </g>
        <g>
          <polygon class="cls-1" points="7.42 20.53 20.82 7.32 23.64 10.09 10.23 23.3 7.42 20.53"/>
          <path class="cls-1" d="M20.82,8.02l2.1,2.07-12.69,12.51-2.1-2.07,12.69-12.51M20.82,6.62l-14.12,13.91,3.53,3.48,14.12-13.91-3.53-3.48h0Z"/>
        </g>
      </g>
    </g>
  </g>
</svg>