<?xml version="1.0" encoding="UTF-8"?>
<svg id="Layer_2" data-name="Layer 2" xmlns="http://www.w3.org/2000/svg" viewBox="-1 -1 8 9">
  <defs>
    <style>
      .cls-1, .cls-2 {
        stroke-width: 0px;
      }

      .cls-2 {
        fill: #ff0;
      }
    </style>
  </defs>
  <g id="Layer_1-2" data-name="Layer 1">
    <g>
      <path class="cls-2" d="M5.79,6.96s-.06,0-.08-.02l-1.86-.99c-.05-.03-.11-.04-.17-.04s-.12.01-.17.04l-1.86.97s-.06,0-.08,0c-.07,0-.1-.02-.13-.05-.03-.04-.05-.09-.04-.14l.36-2.07c.02-.12-.02-.24-.11-.33L.15,2.87s-.06-.11-.04-.18c.02-.06.07-.11.14-.12l2.08-.29c.12-.02.23-.09.28-.2L3.55.2c.03-.06.09-.1.15-.1s.13.04.16.1l.92,1.89c.05.11.16.19.28.21l2.08.31c.07,0,.12.05.14.12s0,.13-.04.18l-1.51,1.46c-.09.08-.13.21-.11.33l.35,2.07c0,.05,0,.1-.04.14-.03.04-.08.06-.13.06Z"/>
      <path class="cls-1" d="M3.7.2s.05,0,.07.04l.92,1.89c.07.14.2.24.35.26l2.08.31s.05.03.06.05c0,.02,0,.05-.02.07l-1.51,1.46c-.11.11-.16.26-.14.42l.35,2.07s0,.04-.02.06c-.01.01-.03.02-.05.02-.01,0-.02,0-.04,0l-1.86-.99c-.07-.04-.14-.06-.22-.06s-.15.02-.22.05l-1.9.98s-.04-.01-.06-.03c-.01-.02-.02-.04-.01-.06l.36-2.07c.03-.15-.02-.31-.13-.42L.22,2.79s-.02-.06-.02-.07.02-.04.06-.05l2.08-.29c.15-.02.29-.12.36-.26L3.64.24s.05-.04.06-.04M3.7,0c-.1,0-.19.05-.24.15l-.94,1.88c-.04.08-.12.14-.21.15L.23,2.47c-.22.03-.31.31-.15.46l1.5,1.47c.06.06.09.15.08.24l-.36,2.07c-.03.18.11.32.27.32.04,0,.08,0,.13-.03l1.86-.97s.08-.03.13-.03.09.01.13.03l1.86.99s.09.03.13.03c.16,0,.3-.14.27-.32l-.35-2.07c-.01-.09.01-.18.08-.24l1.51-1.46c.16-.16.07-.43-.15-.47l-2.08-.31c-.09-.01-.17-.07-.2-.15L3.95.15c-.05-.1-.15-.15-.25-.15h0Z"/>
    </g>
  </g>
</svg>